<!-- Generated by IcoMoon.io -->
<svg version="1.1" xmlns="http://www.w3.org/2000/svg" width="39" height="32" viewBox="0 0 39 32">
<title>envelope</title>
<path fill="#757575" d="M35.692 2.433h-32c-2.036 0-3.692 1.656-3.692 3.691v22.146c0 2.035 1.656 3.691 3.692 3.691h32c2.036 0 3.692-1.656 3.692-3.691v-22.146c0-2.035-1.656-3.691-3.692-3.691zM35.692 4.894c0.167 0 0.326 0.035 0.472 0.095l-16.472 14.271-16.472-14.271c0.145-0.060 0.305-0.095 0.472-0.095h32zM35.692 29.501h-32c-0.679 0-1.231-0.551-1.231-1.23v-20.682l16.424 14.23c0.232 0.201 0.519 0.3 0.806 0.3s0.575-0.1 0.806-0.3l16.424-14.229v20.682c0 0.679-0.552 1.23-1.231 1.23z"></path>
</svg>
